<?xml version="1.0" standalone="no"?>
<!DOCTYPE svg PUBLIC "-//W3C//DTD SVG 20010904//EN"
 "http://www.w3.org/TR/2001/REC-SVG-20010904/DTD/svg10.dtd">
<svg version="1.0" xmlns="http://www.w3.org/2000/svg"
 width="50.000000pt" height="50.000000pt" viewBox="0 0 50.000000 50.000000"
 preserveAspectRatio="xMidYMid meet">

<g transform="translate(0.000000,50.000000) scale(0.100000,-0.100000)"
fill="#000000" stroke="none">
<path d="M183 457 l-63 -31 0 -71 0 -71 -60 -29 -60 -29 0 -76 0 -76 65 -32
65 -32 60 30 60 30 60 -30 60 -30 65 32 65 32 0 76 0 76 -60 29 -60 29 0 71 0
71 -65 32 c-36 18 -66 32 -68 31 -1 0 -30 -14 -64 -32z m112 -9 c25 -12 45
-25 45 -28 0 -3 -20 -16 -45 -28 l-45 -22 -45 22 c-25 12 -45 25 -45 28 0 5
72 45 87 49 1 1 23 -9 48 -21z m-100 -70 l45 -22 0 -58 c0 -32 -2 -58 -5 -58
-2 0 -25 10 -50 22 l-45 22 0 58 c0 32 2 58 5 58 2 0 25 -10 50 -22z m-20
-130 c25 -12 45 -25 45 -28 0 -3 -20 -16 -45 -28 l-45 -22 -45 22 c-25 12 -45
25 -45 28 0 5 72 45 87 49 1 1 23 -9 48 -21z m240 0 c25 -12 45 -25 45 -28 0
-3 -20 -16 -45 -28 l-45 -22 -45 22 c-25 12 -45 25 -45 28 0 5 72 45 87 49 1
1 23 -9 48 -21z m-340 -70 l45 -22 0 -58 c0 -32 -2 -58 -5 -58 -2 0 -25 10
-50 22 l-45 22 0 58 c0 32 2 58 5 58 2 0 25 -10 50 -22z m240 0 l45 -22 0 -58
c0 -32 -2 -58 -5 -58 -2 0 -25 10 -50 22 l-45 22 0 58 c0 32 2 58 5 58 2 0 25
-10 50 -22z"/>
</g>
</svg>
