<?xml version="1.0" standalone="no"?>
<!DOCTYPE svg PUBLIC "-//W3C//DTD SVG 20010904//EN"
 "http://www.w3.org/TR/2001/REC-SVG-20010904/DTD/svg10.dtd">
<svg version="1.0" xmlns="http://www.w3.org/2000/svg"
 width="50.000000pt" height="50.000000pt" viewBox="0 0 50.000000 50.000000"
 preserveAspectRatio="xMidYMid meet">

<g transform="translate(0.000000,50.000000) scale(0.100000,-0.100000)"
fill="#000000" stroke="none">
<path d="M143 427 l-103 -42 0 -130 0 -130 105 -43 105 -42 105 42 105 43 0
130 0 130 -93 37 c-50 21 -99 40 -107 42 -8 3 -61 -14 -117 -37z m184 -8 c43
-17 81 -34 85 -37 4 -4 -31 -22 -77 -41 l-84 -34 -88 36 c-70 28 -84 37 -68
43 11 4 49 20 85 35 36 16 66 28 67 29 1 0 37 -14 80 -31z m-157 -100 l65 -27
3 -111 c1 -61 -1 -111 -5 -111 -5 0 -44 15 -88 34 l-80 33 -3 112 -3 113 23
-8 c12 -4 52 -19 88 -35z"/>
</g>
</svg>
