<?xml version="1.0" standalone="no"?>
<!DOCTYPE svg PUBLIC "-//W3C//DTD SVG 20010904//EN"
 "http://www.w3.org/TR/2001/REC-SVG-20010904/DTD/svg10.dtd">
<svg version="1.0" xmlns="http://www.w3.org/2000/svg"
 width="50.000000pt" height="50.000000pt" viewBox="0 0 50.000000 50.000000"
 preserveAspectRatio="xMidYMid meet">

<g transform="translate(0.000000,50.000000) scale(0.100000,-0.100000)"
fill="#000000" stroke="none">
<path d="M294 436 c-19 -19 -34 -40 -34 -48 0 -8 -11 -21 -25 -28 -14 -7 -30
-27 -36 -44 -9 -24 -18 -31 -40 -33 -16 -1 -29 2 -29 7 0 6 7 10 15 10 20 0
20 36 0 44 -22 8 -18 28 4 21 14 -4 23 0 31 15 23 43 -16 83 -59 61 -27 -15
-55 -93 -48 -136 3 -19 14 -48 25 -63 11 -15 17 -33 15 -40 -3 -7 3 -24 12
-38 24 -37 8 -44 -20 -9 -21 25 -25 27 -31 12 -3 -10 1 -28 11 -43 21 -33 9
-46 -15 -17 -23 30 -30 29 -30 -2 0 -33 42 -75 74 -75 14 0 40 13 58 29 29 26
34 27 54 15 34 -23 114 -28 156 -11 73 31 89 109 25 131 -40 14 -55 -5 -33
-39 24 -36 10 -47 -17 -14 -18 22 -28 26 -57 22 l-35 -5 30 26 30 25 -30 25
c-34 28 -28 47 7 22 28 -20 38 -20 38 -1 0 9 9 15 25 15 29 0 33 16 6 25 -23
7 -46 33 -37 42 3 3 14 -1 23 -10 28 -24 67 -31 82 -13 11 13 9 16 -12 21 -28
7 -64 41 -54 51 3 4 18 -3 33 -15 33 -26 54 -27 54 -1 0 32 -20 66 -50 83 -44
26 -78 21 -116 -17z"/>
</g>
</svg>
