<?xml version="1.0" standalone="no"?>
<!DOCTYPE svg PUBLIC "-//W3C//DTD SVG 20010904//EN"
 "http://www.w3.org/TR/2001/REC-SVG-20010904/DTD/svg10.dtd">
<svg version="1.0" xmlns="http://www.w3.org/2000/svg"
 width="50.000000pt" height="50.000000pt" viewBox="0 0 50.000000 50.000000"
 preserveAspectRatio="xMidYMid meet">

<g transform="translate(0.000000,50.000000) scale(0.100000,-0.100000)"
fill="#000000" stroke="none">
<path d="M225 426 c-11 -31 -24 -56 -30 -56 -5 0 -28 12 -50 25 -22 14 -43 25
-47 25 -5 0 1 -24 12 -52 11 -29 20 -56 20 -60 0 -4 -25 -10 -55 -13 -30 -4
-55 -10 -55 -14 0 -4 18 -17 40 -30 22 -12 42 -26 45 -32 4 -5 -11 -30 -32
-55 l-37 -47 44 7 c25 4 53 10 63 12 15 5 17 -3 17 -58 l1 -63 43 48 43 48 41
-48 41 -48 1 63 c0 59 1 62 23 58 12 -3 40 -8 61 -11 44 -7 45 -12 -12 63
l-22 30 52 33 53 33 -50 8 c-79 13 -76 11 -55 73 10 30 17 55 14 55 -3 0 -25
-12 -49 -26 -43 -25 -64 -25 -66 -1 0 7 -8 29 -18 51 l-17 39 -19 -57z"/>
</g>
</svg>
