<?xml version="1.0" standalone="no"?>
<!DOCTYPE svg PUBLIC "-//W3C//DTD SVG 20010904//EN"
 "http://www.w3.org/TR/2001/REC-SVG-20010904/DTD/svg10.dtd">
<svg version="1.0" xmlns="http://www.w3.org/2000/svg"
 width="50.000000pt" height="50.000000pt" viewBox="0 0 50.000000 50.000000"
 preserveAspectRatio="xMidYMid meet">

<g transform="translate(0.000000,50.000000) scale(0.100000,-0.100000)"
fill="#000000" stroke="none">
<path d="M239 473 c-6 -16 -13 -54 -16 -85 l-6 -58 -97 0 -97 0 -11 -39 c-16
-52 -16 -263 0 -279 9 -9 76 -12 238 -12 162 0 229 3 238 12 19 19 17 408 -2
453 l-15 35 -111 0 -110 0 -11 -27z m219 -20 c3 -10 -21 -13 -97 -13 -86 0
-100 2 -94 15 4 13 22 15 96 13 61 -2 92 -7 95 -15z m12 -233 l0 -191 -107 3
-108 3 -3 175 c-1 96 0 180 2 187 4 9 34 13 111 13 l105 0 0 -190z m-250 65
c0 -12 -17 -15 -90 -15 -73 0 -90 3 -90 15 0 12 17 15 90 15 73 0 90 -3 90
-15z m0 -150 l0 -105 -95 0 -95 0 0 105 0 105 95 0 95 0 0 -105z"/>
</g>
</svg>
