<?xml version="1.0" standalone="no"?>
<!DOCTYPE svg PUBLIC "-//W3C//DTD SVG 20010904//EN"
 "http://www.w3.org/TR/2001/REC-SVG-20010904/DTD/svg10.dtd">
<svg version="1.0" xmlns="http://www.w3.org/2000/svg"
 width="64.000000pt" height="64.000000pt" viewBox="0 0 64.000000 64.000000"
 preserveAspectRatio="xMidYMid meet">

<g transform="translate(0.000000,64.000000) scale(0.100000,-0.100000)"
fill="#000000" stroke="none">
<path d="M50 540 c0 -33 -3 -40 -20 -40 -19 0 -20 -7 -20 -220 l0 -220 310 0
310 0 0 220 c0 213 -1 220 -20 220 -13 0 -20 7 -20 20 0 19 -7 20 -174 20
-166 0 -175 1 -181 20 -6 18 -15 20 -96 20 l-89 0 0 -40z m175 0 c6 -19 15
-20 176 -20 106 0 169 -4 169 -10 0 -6 -90 -10 -250 -10 l-250 0 0 30 0 30 74
0 c66 0 75 -2 81 -20z m385 -260 l0 -200 -290 0 -290 0 0 200 0 200 290 0 290
0 0 -200z"/>
</g>
</svg>
